<mxfile host="app.diagrams.net" modified="2020-07-27T16:02:30.047Z" agent="5.0 (Macintosh; Intel Mac OS X 10_15_5) AppleWebKit/605.1.15 (KHTML, like Gecko) Version/13.1.1 Safari/605.1.15" etag="g7N6sUHMAX7PA9qLgh49" version="13.5.3" type="github">
  <diagram id="h6gBIYu1wW4u7BqqpJzi" name="Page-1">
    <mxGraphModel dx="750" dy="514" grid="1" gridSize="10" guides="1" tooltips="1" connect="1" arrows="1" fold="1" page="1" pageScale="1" pageWidth="827" pageHeight="1169" math="0" shadow="0">
      <root>
        <mxCell id="0" />
        <mxCell id="1" parent="0" />
        <mxCell id="pgNp7iR9rAMAY60Db68W-1" value="" style="ellipse;whiteSpace=wrap;html=1;" vertex="1" parent="1">
          <mxGeometry x="260" y="150" width="120" height="80" as="geometry" />
        </mxCell>
        <mxCell id="pgNp7iR9rAMAY60Db68W-2" value="Test" style="text;html=1;strokeColor=none;fillColor=none;align=center;verticalAlign=middle;whiteSpace=wrap;rounded=0;" vertex="1" parent="1">
          <mxGeometry x="360" y="260" width="40" height="20" as="geometry" />
        </mxCell>
      </root>
    </mxGraphModel>
  </diagram>
</mxfile>
